# xmcd
#
# Track frame offsets:
#	182
#	15947
#	37377
#	55825
#	74315
#	88165
#	107597
#	123892
#	140655
#	162452
#	178480
#	198230
#
# Disc length: 2859 seconds
#
# Revision: 6
# Processed by: cddbd v1.5.2PL0 Copyright (c) Steve Scherf et al.
# Submitted via: EasyCDDAExtractor 15.3.0.1
#
DISCID=ac0b290c
DTITLE=Myriam Hernandez - Myriam Hernandez 2
DYEAR=1992
DGENRE=Latin
TTITLE0=Un Hombre Secreto
TTITLE1=Si No Fueras Tu
TTITLE2=Tu Boca
TTITLE3=Inestabilidad
TTITLE4=Camino Sin Camino
TTITLE5=Yo Soy La Unica
TTITLE6=Se Me Fue
TTITLE7=Mira
TTITLE8=No Te Quiero Como Un Amigo
TTITLE9=Decididamente No
TTITLE10=Camino De La Libertad
TTITLE11=Eres Casi Mio
EXTD=
EXTT0=
EXTT1=
EXTT2=
EXTT3=
EXTT4=
EXTT5=
EXTT6=
EXTT7=
EXTT8=
EXTT9=
EXTT10=
EXTT11=
PLAYORDER=
